<svg width="38" height="17" viewBox="0 0 38 17" fill="none" xmlns="http://www.w3.org/2000/svg">
<path d="M1.49694 13H7.27677V11.9844H2.64182V8.77131H6.90745V7.75568H2.64182V4.56108H7.2029V3.54545H1.49694V13ZM10.2082 8.73438C10.2082 7.49716 10.9746 6.79545 12.0179 6.79545C13.0289 6.79545 13.6429 7.45561 13.6429 8.56818V13H14.7324V8.49432C14.7324 6.68466 13.7675 5.81676 12.3318 5.81676C11.2608 5.81676 10.596 6.29688 10.2636 7.01705H10.1713V5.90909H9.11874V13H10.2082V8.73438ZM19.5854 15.8068C21.2843 15.8068 22.6508 15.0312 22.6508 13.2031V5.90909H21.5982V7.03551H21.4874C21.2474 6.66619 20.8042 5.81676 19.4193 5.81676C17.6281 5.81676 16.3908 7.23864 16.3908 9.41761C16.3908 11.6335 17.6835 12.8892 19.4008 12.8892C20.7857 12.8892 21.2289 12.0767 21.469 11.6889H21.5613V13.1293C21.5613 14.3111 20.7303 14.8466 19.5854 14.8466C18.2975 14.8466 17.845 14.168 17.5542 13.7756L16.6863 14.3849C17.1295 15.1282 18.002 15.8068 19.5854 15.8068ZM19.5485 11.9105C18.182 11.9105 17.4803 10.8764 17.4803 9.39915C17.4803 7.95881 18.1636 6.79545 19.5485 6.79545C20.8781 6.79545 21.5798 7.86648 21.5798 9.39915C21.5798 10.9688 20.8596 11.9105 19.5485 11.9105Z" fill="white"/>
<path d="M37 6.75L33.5 10.25L30 6.75" stroke="white" stroke-linecap="round" stroke-linejoin="round"/>
</svg>
